# xmcd CD database file
#
# Track frame offsets:
#	150
#	28295
#	50267
#	68048
#	83287
#	105901
#	125664
#	148129
#	169454
#	190719
#
# Disc length: 2871 seconds
#
# Revision: 1
# Processed by: cddbd v1.5.2PL0 Copyright (c) Steve Scherf et al.
# Submitted via: CDex 1.51
#
DISCID=830b350a
DTITLE=Just Chill ! - CD 3 - Latino Fever
DYEAR=2006
DGENRE=New Age
TTITLE0=Amor Amor
TTITLE1=Con Fuego
TTITLE2=Noche En Condado
TTITLE3=Salsa Del Este
TTITLE4=Te Quiero
TTITLE5=El Tiempo A Pasado
TTITLE6=A Ti
TTITLE7=Ritmos De Los 70
TTITLE8=Amantes De Los Latinos
TTITLE9=Mi Amor
EXTD=YEAR: 2006
EXTT0=
EXTT1=
EXTT2=
EXTT3=
EXTT4=
EXTT5=
EXTT6=
EXTT7=
EXTT8=
EXTT9=
PLAYORDER=
